#tb 0: 1/10000000
#tb 1: 1/10000000
1,          0,          0,   240000,      576, 0x9b6e1638
1,     240000,     240000,   240000,      576, 0x0ca91183
1,     480000,     480000,   240000,      576, 0xec6a180f
1,     720000,     720000,   240000,      576, 0x478a2b9b
1,     960000,     960000,   240000,      576, 0x00fa15b3
1,    1200000,    1200000,   240000,      576, 0xfb551816
1,    1440000,    1440000,   240000,      576, 0x422e12bd
1,    1680000,    1680000,   240000,      576, 0xa7581b29
1,    1920000,    1920000,   240000,      576, 0xd4b31a74
1,    2160000,    2160000,   240000,      576, 0x11521b10
1,    2400000,    2400000,   240000,      576, 0x3dcc1474
1,    2640000,    2640000,   240000,      576, 0x66c31aab
1,    2880000,    2880000,   240000,      576, 0x97f318a8
1,    3120000,    3120000,   240000,      576, 0xd3fb1a30
1,    3360000,    3360000,   240000,      576, 0xd2bd16af
1,    3600000,    3600000,   240000,      576, 0x6c10146a
1,    3840000,    3840000,   240000,      576, 0x10d81468
1,    4080000,    4080000,   240000,      576, 0x3813162d
1,    4320000,    4320000,   240000,      576, 0x89e71d95
1,    4560000,    4560000,   240000,      576, 0xd1c717f9
1,    4800000,    4800000,   240000,      576, 0x1a311e5f
1,    5040000,    5040000,   240000,      576, 0x0ea80e05
1,    5280000,    5280000,   240000,      576, 0x2f1718f2
1,    5520000,    5520000,   240000,      576, 0xffe01e13
1,    5760000,    5760000,   240000,      576, 0xa7b02296
1,    6000000,    6000000,   240000,      576, 0x199f1597
1,    6240000,    6240000,   240000,      576, 0xdea217ba
1,    6480000,    6480000,   240000,      576, 0x8a790f01
1,    6720000,    6720000,   240000,      576, 0x23e80038
1,    6960000,    6960000,   240000,      576, 0x75dc048a
1,    7200000,    7200000,   240000,      576, 0xeb4b0d93
1,    7440000,    7440000,   240000,      576, 0xde1322f5
1,    7680000,    7680000,   240000,      576, 0xc3131f35
0,    7886333,    9486444,   400000,    41980, 0xd4920915
1,    7920000,    7920000,   240000,      576, 0x708f1381
1,    8160000,    8160000,   240000,      576, 0x1f00137e
1,    8400000,    8400000,   240000,      576, 0x05131eb0
1,    8640000,    8640000,   240000,      576, 0x78151c22
0,    8686444,    8686444,   400000,     7228, 0x1b141fa3
1,    8880000,    8880000,   240000,      576, 0x31771239
0,    9086333,    9086333,   400000,     7492, 0x1a47f3e4
1,    9120000,    9120000,   240000,      576, 0x3ce4097c
1,    9360000,    9360000,   240000,      576, 0x180e15f4
0,    9486444,   10686333,   400000,    25068, 0xcb70a744
1,    9600000,    9600000,   240000,      576, 0x30db0604
1,    9840000,    9840000,   240000,      576, 0x9b290284
0,    9886444,    9886444,   400000,     7212, 0x0ab9f558
1,   10080000,   10080000,   240000,      576, 0xcf340753
0,   10286444,   10286444,   400000,     7612, 0xa93054f0
1,   10320000,   10320000,   240000,      576, 0xdaa41457
1,   10560000,   10560000,   240000,      576, 0x34d310a2
0,   10686333,   11886333,   400000,    22868, 0xa77db64a
1,   10800000,   10800000,   240000,      576, 0x58b31010
1,   11040000,   11040000,   240000,      576, 0x19610f54
0,   11086444,   11086444,   400000,     6260, 0x6cf76411
1,   11280000,   11280000,   240000,      576, 0x17762352
0,   11486333,   11486333,   400000,     6156, 0xe168394b
1,   11520000,   11520000,   240000,      576, 0x1fea1448
1,   11760000,   11760000,   240000,      576, 0x55840a01
0,   11886333,   13086444,   449438,    23364, 0x53164f1e
1,   12000000,   12000000,   240000,      576, 0x6c9c24ce
1,   12240000,   12240000,   240000,      576, 0x955f1e97
0,   12286444,   12286444,   449438,     6708, 0x89877269
1,   12480000,   12480000,   240000,      576, 0x2827134f
0,   12686444,   12686444,   449438,     6908, 0x8d62a249
1,   12720000,   12720000,   240000,      576, 0x34a01c29
1,   12960000,   12960000,   240000,      576, 0x7d351e52
0,   13086444,   14286444,   449438,    38156, 0xec41f682
1,   13200000,   13200000,   240000,      576, 0x00c91d9e
1,   13440000,   13440000,   240000,      576, 0x57ea1a97
0,   13486333,   13486333,   449438,     5764, 0xcc04534b
1,   13680000,   13680000,   240000,      576, 0xef3a1c74
0,   13886333,   13886333,   449438,     5388, 0xb8a1c3c5
1,   13920000,   13920000,   240000,      576, 0x11fc217d
1,   14160000,   14160000,   240000,      576, 0x59ce20e5
0,   14286444,   15486333,   449438,    16764, 0x59460d96
1,   14400000,   14400000,   240000,      576, 0xaafc1dbf
1,   14640000,   14640000,   240000,      576, 0xdd941609
0,   14686333,   14686333,   449438,     5548, 0x5c91e93d
1,   14880000,   14880000,   240000,      576, 0x900420b0
0,   15086333,   15086333,   449438,     5652, 0x5e321aed
1,   15120000,   15120000,   240000,      576, 0x5f4f1aa1
1,   15360000,   15360000,   240000,      576, 0x7d7e18de
0,   15486333,   16686333,   449438,    15564, 0xefdf5080
1,   15600000,   15600000,   240000,      576, 0x986c0d9d
1,   15840000,   15840000,   240000,      576, 0xcb4c21c0
0,   15886333,   15886333,   449438,     6492, 0xd1d5c5f8
1,   16080000,   16080000,   240000,      576, 0xbcfb1e8b
0,   16286333,   16286333,   449438,     5604, 0xf9472b44
1,   16320000,   16320000,   240000,      576, 0xcb541b4c
1,   16560000,   16560000,   240000,      576, 0x980426e9
0,   16686333,   17886333,   449438,    17924, 0x45815b7b
1,   16800000,   16800000,   240000,      576, 0x09d00aa0
1,   17040000,   17040000,   240000,      576, 0xad591374
0,   17086444,   17086444,   449438,     5020, 0x3cc5e554
1,   17280000,   17280000,   240000,      576, 0x97bf1461
0,   17486444,   17486444,   449438,     5276, 0xa0554c12
1,   17520000,   17520000,   240000,      576, 0xdc871cc4
1,   17760000,   17760000,   240000,      576, 0x56781896
0,   17886333,   19086444,   449438,    31460, 0x5765eb5f
1,   18000000,   18000000,   240000,      576, 0xc77714e3
1,   18240000,   18240000,   240000,      576, 0x280e18d4
0,   18286333,   18286333,   449438,     4972, 0x91adbab7
1,   18480000,   18480000,   240000,      576, 0xbc0d2302
0,   18686444,   18686444,   449438,     5580, 0xfea707cb
1,   18720000,   18720000,   240000,      576, 0x79191384
1,   18960000,   18960000,   240000,      576, 0x65481c97
0,   19086444,   20286333,   449438,    17412, 0x0afe4d27
1,   19200000,   19200000,   240000,      576, 0xc94d227d
1,   19440000,   19440000,   240000,      576, 0xa68a1f14
0,   19486444,   19486444,   449438,     5236, 0x03f55309
1,   19680000,   19680000,   240000,      576, 0x6af11a5c
0,   19886333,   19886333,   449438,     4924, 0x558e753c
1,   19920000,   19920000,   240000,      576, 0x4d1019ef
1,   20160000,   20160000,   240000,      576, 0x3b1b17b5
0,   20286333,   21486333,   449438,    15396, 0xf145d121
1,   20400000,   20400000,   240000,      576, 0xcdd8159f
1,   20640000,   20640000,   240000,      576, 0x97cd1d06
0,   20686333,   20686333,   449438,     4708, 0x43066a92
1,   20880000,   20880000,   240000,      576, 0x5d1b1123
0,   21086444,   21086444,   449438,     4332, 0x9e22bcba
1,   21120000,   21120000,   240000,      576, 0x888d0cb0
1,   21360000,   21360000,   240000,      576, 0x556e1dad
0,   21486333,   22686444,   449438,    12876, 0x46ff9ef4
1,   21600000,   21600000,   240000,      576, 0xf7af0bce
1,   21840000,   21840000,   240000,      576, 0xb5da160a
0,   21886444,   21886444,   449438,     5940, 0x27cba62e
1,   22080000,   22080000,   240000,      576, 0x4a8d0e98
0,   22286444,   22286444,   449438,     6124, 0x6bab0a6d
1,   22320000,   22320000,   240000,      576, 0x183b1c7e
1,   22560000,   22560000,   240000,      576, 0xc47120e6
0,   22686444,   23886444,   449438,    36428, 0x942f9648
1,   22800000,   22800000,   240000,      576, 0xb1f31346
0,   23086333,   23086333,   449438,     6660, 0x545a0db7
0,   23486333,   23486333,   449438,     6780, 0x2d1d4189
0,   23886444,   25086333,   449438,    16460, 0x7c3b3ca4
0,   24286444,   24286444,   449438,     6724, 0x8538cc6f
0,   24686444,   24686444,   449438,     7068, 0x69574fd0
0,   25086333,   26286333,   449438,    19552, 0xf230e854
